<svg xmlns="http://www.w3.org/2000/svg" width="70" height="60" viewBox="0 0 0 0 70 0 60">
  <path d="M22.436 28.946l-2.547-1.47v5.88l2.547-1.47 1.479-.854 1.483.856 2.546 1.468v-5.88l-2.546 1.47-1.481.856zM9.191 58.663c.46-2.623 1.039-5.096 1.766-7.344V34.911C6.029 40.135 2.619 48.349 1 58.663h8.191z"/>
  <path d="M31.725 30.938l-3.121 4.729-4.687 7.103-4.688-7.103-3.159-4.787c-.183.1-.363.203-.544.311a20.557 20.557 0 0 0-3.347 2.511v24.963h23.249V47.661a.046.046 0 0 1 .007.017V33.621a20.71 20.71 0 0 0-3.251-2.418c-.153-.093-.306-.179-.459-.265zm-7.916 24.096a1.124 1.124 0 1 1 .002-2.248 1.124 1.124 0 0 1-.002 2.248zm0-6.002a1.124 1.124 0 1 1 .001-2.247 1.124 1.124 0 0 1-.001 2.247z"/>
  <g>
    <path d="M23.32 6.703h1.04l-.52-4.705z"/>
    <path d="M26.58 6.572l-.259-.214c-.171-.144-.343-.215-.515-.215h-3.932c-.172 0-.344.071-.516.215l-.258.214a.672.672 0 0 0-.258.537v4.174c.903.316 1.977.501 3.132.501a9.782 9.782 0 0 0 2.864-.412V7.109a.672.672 0 0 0-.258-.537z"/>
    <path d="M31.15 12.436V9.683c0-.523-.209-.96-.628-1.31l-.628-.524c-.42-.348-.839-.523-1.259-.523h-9.59c-.42 0-.839.175-1.258.523l-.628.524c-.42.35-.629.786-.629 1.31v2.679a3.179 3.179 0 0 0 0 4.283v3.217c2.201.77 4.822 1.22 7.638 1.22 2.541 0 4.923-.366 6.982-1.004v-3.507a3.175 3.175 0 0 0 .763-2.068c0-.789-.288-1.51-.763-2.067zM18.894 16.97a2.466 2.466 0 1 1 0-4.932 2.466 2.466 0 0 1 0 4.932zm9.826 0a2.466 2.466 0 1 1 0-4.932 2.466 2.466 0 0 1 0 4.932z"/>
    <path d="M18.894 12.546c-.164 0-.321.022-.472.059a1.137 1.137 0 1 1-1.427 1.427 1.958 1.958 0 1 0 1.899-1.486zM25.218 2.713a1.378 1.378 0 1 1-2.756 0 1.378 1.378 0 0 1 2.756 0zM28.72 12.546c-.21 0-.412.034-.601.095a1.138 1.138 0 0 1-.218 2.255c-.52 0-.952-.349-1.09-.825a1.958 1.958 0 1 0 1.909-1.525zM16.53 20.954v2.354c0 .524.209.961.629 1.31l.628.524c.419.35.839.524 1.258.524h9.59c.419 0 .839-.174 1.258-.524l.628-.524c.419-.349.629-.786.629-1.31V21.17c-2.059.637-4.441 1.003-6.982 1.003-2.816 0-5.437-.449-7.638-1.219z"/>
  </g>
  <g>
    <g fill="#010202">
      <path d="M48.395 27.196l-2.327.028c-1.198.025-2.105 1.129-2.118 2.451l1.197 11.355-8.426-6.32v8.292s8.387 5.985 11.226 5.018c2.839-.966 3.252-4.546 3.402-7.02.15-2.475-.806-11.443-.806-11.443.023-1.288-.951-2.386-2.148-2.361z"/>
      <path d="M61.591 25.567s-.648 1.081-1.91 1.333c-3.027.613-12.361 1.658-12.361 1.658l-2.739-.793s-.396-.649-.504-1.225c-.145-.577 0-1.045 0-1.045h17.514zM68.028 22.804H37.745a.973.973 0 0 0 0 1.945h30.283a.973.973 0 0 0 0-1.945z"/>
    </g>
    <path d="M46.602 9.471q1.188 0 1.835.461.647.46.647 1.061 0 .36-.273.627-.274.267-.661.267-.253 0-.44-.114-.187-.113-.534-.567-.654-.867-1.295-.867-.547 0-.967.42-.42.42-.42 1.048 0 .547.266 1.061.267.513 1.348 1.661 1.482 1.575 1.482 2.989 0 1.415-1.201 2.476t-3.096 1.061q-1.589 0-2.363-.647-.774-.648-.774-1.595 0-.467.294-.774t.721-.307q.373 0 .64.247t.267.58q0 .134-.027.347-.013.174-.013.294 0 .44.374.747.36.307.987.307.721 0 1.268-.247t.854-.747q.307-.501.307-.994 0-.481-.287-.961-.287-.481-1.288-1.588-1.388-1.548-1.388-2.976 0-1.308 1.055-2.289 1.054-.981 2.682-.981zM55.17 3.746q.413 0 .68.274.267.273.267.7 0 .588-.407 1.035-.407.447-.914.447-.4 0-.667-.281-.267-.28-.267-.733 0-.601.387-1.021.387-.421.921-.421zm-5.258 8.835l-.587-.454q1.334-1.468 2.435-2.089 1.101-.62 1.875-.62.427 0 .654.187.227.187.227.507 0 .387-.868 3.283-1.414 4.737-1.414 5.711 0 .187.093.314.094.127.2.127.427 0 2.189-1.655l.52.507q-1.828 1.722-2.669 2.202-.84.481-1.374.481-.467 0-.741-.294-.273-.294-.273-.814 0-1.668 2.001-8.154.094-.307.094-.547 0-.267-.24-.267-.267 0-.608.213-.34.214-1.514 1.362zM58.506 20.708h-1.988l.934-3.59q.68-2.642 1.187-5.018.12-.587.12-.734 0-.32-.293-.32-.2 0-.614.274-.414.273-1.495 1.354l-.413-.467q1.281-1.375 2.555-2.062 1.275-.687 1.955-.687.241 0 .381.113.14.114.14.287 0 .174-.174.921l-.574 2.389q1.348-2.122 3.043-3.63.814-.721 1.361-.721.401 0 .668.261.266.26.266.607 0 .36-.26.614-.26.253-1.301.6-.987.334-1.608.801-.621.467-1.361 1.428-.741.961-1.034 1.675-.294.714-.895 3.316z"/>
  </g>
</svg>